<svg width="25" height="32" viewBox="0 0 25 32" fill="none" xmlns="http://www.w3.org/2000/svg">
<g clip-path="url(#clip0_2355_1664)">
<path d="M17.0342 31.8973L12.9843 30.1081C12.6756 29.9714 12.3231 29.9714 12.0152 30.1081L7.96536 31.8973C7.17695 32.2457 6.28857 31.6725 6.28857 30.8154V17.4735C6.28857 16.8193 6.82265 16.2888 7.48126 16.2888H17.5191C18.1778 16.2888 18.7118 16.8193 18.7118 17.4735V30.8154C18.7118 31.6725 17.8235 32.2457 17.0351 31.8973H17.0342Z" fill="#FD694B"/>
<path d="M12.4373 24.1779C11.7471 24.1779 11.0973 23.8443 10.6983 23.286L9.22583 21.2251C9.07324 21.0108 8.82417 20.8836 8.5602 20.8836C8.51811 20.8836 8.47514 20.8871 8.43392 20.8932L5.9205 21.2843C5.81 21.3017 5.69687 21.3104 5.5855 21.3104C4.95933 21.3104 4.3665 21.036 3.95958 20.557C3.55442 20.0805 3.38253 19.4533 3.48777 18.8366L3.91398 16.3454C3.9666 16.0397 3.84207 15.7365 3.5895 15.5536L1.53386 14.065C0.972594 13.6582 0.653375 13.0302 0.657759 12.3403C0.662144 11.6504 0.989257 11.0259 1.55578 10.6269L3.63071 9.16441C3.88504 8.98498 4.01308 8.68359 3.96484 8.37698L3.57108 5.88053C3.47461 5.26818 3.65176 4.64711 4.05692 4.17674C4.46384 3.70463 5.05317 3.43373 5.67319 3.43373C5.79334 3.43373 5.91524 3.44419 6.03451 3.46422L8.54267 3.88755C8.58827 3.89539 8.63387 3.89888 8.67947 3.89888C8.93906 3.89888 9.18637 3.77432 9.33896 3.56526L10.8377 1.52351C11.2438 0.970385 11.8717 0.65332 12.5601 0.65332C13.2485 0.65332 13.9001 0.986935 14.2991 1.54528L15.7716 3.6062C15.9242 3.82048 16.1732 3.94766 16.4381 3.94766C16.4802 3.94766 16.5232 3.94417 16.5644 3.93807L19.0778 3.54697C19.1883 3.52955 19.3014 3.52084 19.4128 3.52084C20.039 3.52084 20.6318 3.79522 21.0387 4.2743C21.4439 4.75077 21.6158 5.37793 21.5105 5.99464L21.0843 8.48586C21.0317 8.7916 21.1562 9.09473 21.4088 9.27765L23.4644 10.7663C24.0257 11.1731 24.3449 11.8011 24.3405 12.491C24.3362 13.1809 24.0082 13.8054 23.4425 14.2043L21.3676 15.6669C21.1133 15.8463 20.9852 16.1477 21.0335 16.4543L21.4272 18.9507C21.5237 19.5631 21.3465 20.1841 20.9423 20.6536C20.5353 21.1258 19.946 21.3967 19.3251 21.3967C19.205 21.3967 19.0831 21.3862 18.9638 21.3662L16.4556 20.9428C16.41 20.935 16.3644 20.9315 16.3188 20.9315C16.0592 20.9315 15.8119 21.0561 15.6593 21.2651L14.1606 23.3069C13.7545 23.86 13.1266 24.1771 12.4382 24.1771L12.4373 24.1779Z" fill="#C5D6EE"/>
<path d="M12.5628 1.30658C13.017 1.30658 13.4722 1.51215 13.7651 1.92329L15.2376 3.98421C15.5164 4.37445 15.9672 4.60092 16.4399 4.60092C16.5153 4.60092 16.5916 4.59482 16.6679 4.5835L19.1813 4.19239C19.2602 4.1802 19.3374 4.1741 19.4146 4.1741C20.3056 4.1741 21.0195 4.97547 20.8634 5.88486L20.4372 8.37608C20.3433 8.92397 20.5705 9.47709 21.0221 9.80461L23.0777 11.2932C23.8916 11.883 23.8837 13.092 23.0619 13.6712L20.987 15.1337C20.531 15.4552 20.2968 16.0057 20.3837 16.5544L20.7774 19.0509C20.9204 19.955 20.2074 20.7425 19.3251 20.7425C19.2427 20.7425 19.1585 20.7355 19.0735 20.7216L16.5653 20.2982C16.4829 20.2843 16.4004 20.2773 16.318 20.2773C15.8523 20.2773 15.4068 20.4968 15.1271 20.8792L13.6283 22.921C13.3336 23.3225 12.8855 23.5229 12.4374 23.5229C11.9892 23.5229 11.5279 23.3173 11.235 22.9062L9.76258 20.8453C9.4837 20.455 9.03293 20.2285 8.56024 20.2285C8.48482 20.2285 8.40853 20.2346 8.33223 20.246L5.81881 20.6371C5.73988 20.6493 5.66271 20.6554 5.58554 20.6554C4.69453 20.6554 3.98067 19.854 4.13677 18.9446L4.56298 16.4534C4.65682 15.9055 4.42968 15.3524 3.97804 15.0249L1.9224 13.5362C1.10856 12.9465 1.11646 11.7375 1.93819 11.1582L4.01311 9.69573C4.46914 9.37431 4.7033 8.8238 4.61648 8.27504L4.22271 5.77859C4.07976 4.87443 4.79275 4.087 5.67499 4.087C5.75742 4.087 5.84161 4.09397 5.92668 4.1079L8.43484 4.53124C8.51727 4.54517 8.59971 4.55214 8.68214 4.55214C9.14782 4.55214 9.59332 4.33263 9.87308 3.95024L11.3718 1.90848C11.6665 1.50693 12.1146 1.30658 12.5628 1.30658ZM12.5628 0C11.6744 0 10.8316 0.425947 10.3089 1.13847L8.81018 3.18023C8.78036 3.22117 8.73213 3.24556 8.68214 3.24556C8.67337 3.24556 8.6646 3.24556 8.65496 3.24294L6.1468 2.81961C5.9907 2.79348 5.83197 2.77954 5.67499 2.77954C4.86203 2.77954 4.09029 3.13319 3.55884 3.75077C3.02915 4.36661 2.79675 5.17843 2.92391 5.9798L3.31767 8.47625C3.32732 8.53635 3.30189 8.59471 3.25277 8.62956L1.17785 10.0921C0.44557 10.6077 0.00620387 11.4457 6.50271e-05 12.335C-0.00607382 13.2244 0.422768 14.0684 1.14627 14.5919L3.20191 16.0806C3.25102 16.1163 3.27558 16.1755 3.26505 16.2348L2.83884 18.726C2.70116 19.5326 2.92654 20.3531 3.45711 20.9768C3.98944 21.6031 4.76468 21.9619 5.58554 21.9619C5.73024 21.9619 5.87757 21.9506 6.02227 21.928L8.53569 21.5369C8.54358 21.536 8.55235 21.5351 8.56024 21.5351C8.61199 21.5351 8.66022 21.5604 8.69004 21.6022L10.1625 23.6631C10.6852 24.3939 11.5358 24.8303 12.4382 24.8303C13.3406 24.8303 14.1694 24.4044 14.6921 23.6919L16.1908 21.6501C16.2206 21.6092 16.2689 21.5848 16.3189 21.5848C16.3276 21.5848 16.3364 21.5848 16.3461 21.5874L18.8542 22.0107C19.0103 22.0369 19.169 22.0508 19.326 22.0508C20.139 22.0508 20.9107 21.6971 21.4422 21.0796C21.9719 20.4637 22.2043 19.6519 22.078 18.8505L21.6842 16.3541C21.6746 16.294 21.7 16.2356 21.7491 16.2008L23.824 14.7383C24.5546 14.2235 24.9939 13.3855 24.9992 12.4962C25.0053 11.6068 24.5765 10.7628 23.853 10.2393L21.7973 8.75063C21.7482 8.71492 21.7237 8.65569 21.7342 8.59646L22.1604 6.10523C22.2981 5.29864 22.0727 4.4781 21.5421 3.85442C21.0098 3.22814 20.2346 2.86926 19.4137 2.86926C19.269 2.86926 19.1217 2.88058 18.977 2.90323L16.4636 3.29434C16.4557 3.29521 16.4469 3.29608 16.439 3.29608C16.3873 3.29608 16.339 3.27082 16.3092 3.22901L14.8368 1.16809C14.3141 0.43727 13.4634 0.000871056 12.561 0.000871056L12.5628 0Z" fill="#247AF2"/>
</g>
<defs>
<clipPath id="clip0_2355_1664">
<rect width="25" height="32" fill="white"/>
</clipPath>
</defs>
</svg>
