<?xml version="1.0" standalone="no"?>
<!DOCTYPE svg PUBLIC "-//W3C//DTD SVG 20010904//EN"
 "http://www.w3.org/TR/2001/REC-SVG-20010904/DTD/svg10.dtd">
<svg version="1.0" xmlns="http://www.w3.org/2000/svg"
 width="800.000000pt" height="800.000000pt" viewBox="0 0 800.000000 800.000000"
 preserveAspectRatio="xMidYMid meet">

<g transform="translate(0.000000,800.000000) scale(0.100000,-0.100000)"
fill="#FEE500" stroke="none">
<path d="M2400 5520 c-20 -20 -20 -23 -20 -1883 0 -1805 1 -1864 19 -1881 17
-15 91 -16 992 -14 l974 3 88 28 c177 55 364 170 478 294 70 77 153 206 195
303 53 122 75 219 81 360 14 324 -117 624 -364 835 -43 37 -78 70 -78 74 0 4
28 31 61 59 187 155 316 370 366 612 16 77 19 119 15 225 -11 278 -99 484
-294 686 -140 145 -291 234 -493 290 l-85 24 -957 3 c-951 3 -957 3 -978 -18z
m1480 -1885 l0 -855 -155 0 -155 0 0 855 0 855 155 0 155 0 0 -855z"/>
</g>
</svg>
