<?xml version="1.0" standalone="no"?>
<!DOCTYPE svg PUBLIC "-//W3C//DTD SVG 20010904//EN"
 "http://www.w3.org/TR/2001/REC-SVG-20010904/DTD/svg10.dtd">
<svg version="1.0" xmlns="http://www.w3.org/2000/svg"
 width="900.000000pt" height="716.000000pt" viewBox="0 0 900.000000 716.000000"
 preserveAspectRatio="xMidYMid meet">

<g transform="translate(0.000000,716.000000) scale(0.100000,-0.100000)"
fill="#FFC726" stroke="none">
<path d="M4937 4423 c-4 -3 -7 -361 -7 -795 l0 -788 130 0 130 0 2 420 3 420
155 -141 c128 -117 318 -291 364 -334 16 -15 358 -327 380 -347 17 -16 42 -18
200 -18 173 0 179 1 160 18 -10 10 -163 146 -339 302 -176 157 -338 300 -359
320 -21 19 -44 40 -50 45 -6 6 -55 49 -108 97 l-97 87 437 347 c240 191 444
353 452 360 12 12 -14 14 -165 14 l-180 0 -425 -354 -425 -353 -3 353 -2 354
-123 0 c-68 0 -127 -3 -130 -7z"/>
<path d="M6650 3635 l0 -796 498 3 c437 3 504 6 557 21 160 47 262 122 318
236 30 62 32 72 32 176 0 105 -2 114 -33 177 -50 103 -139 171 -259 199 -80
18 -80 20 -20 40 151 51 241 163 254 316 13 162 -58 289 -202 357 -112 54
-162 58 -672 63 l-473 5 0 -797z m827 605 c51 -5 111 -17 135 -26 57 -22 113
-76 127 -123 13 -47 14 -141 1 -175 -16 -43 -78 -103 -133 -127 -51 -23 -60
-24 -374 -27 l-323 -3 0 245 0 246 238 0 c130 0 278 -5 329 -10z m102 -683
c119 -35 192 -106 212 -208 20 -102 -21 -217 -94 -265 -84 -54 -109 -58 -459
-62 l-328 -3 0 281 0 282 308 -5 c238 -3 319 -8 361 -20z"/>
</g>
</svg>
