<?xml version="1.0" standalone="no"?>
<!DOCTYPE svg PUBLIC "-//W3C//DTD SVG 20010904//EN"
 "http://www.w3.org/TR/2001/REC-SVG-20010904/DTD/svg10.dtd">
<svg version="1.0" xmlns="http://www.w3.org/2000/svg"
 width="500.000000pt" height="500.000000pt" viewBox="0 0 500.000000 500.000000"
 preserveAspectRatio="xMidYMid meet">

<g transform="translate(0.000000,500.000000) scale(0.100000,-0.100000)"
fill="#3182F6" stroke="none">
<path d="M2846 4186 c5 -13 -44 -268 -76 -401 -5 -22 -52 -233 -104 -470 -52
-236 -129 -587 -171 -780 -42 -192 -96 -442 -121 -555 -24 -113 -50 -234 -58
-270 -28 -129 -67 -309 -115 -540 -82 -398 -83 -406 -59 -421 60 -38 416 49
725 176 132 55 384 186 506 262 517 326 868 737 974 1141 34 129 36 308 4 425
-123 461 -684 745 -1374 696 -82 -6 -150 -9 -152 -8 -2 2 3 40 11 84 46 261
76 614 55 653 -13 25 -54 31 -45 8z m8 -772 c3 -8 2 -12 -4 -9 -6 3 -10 10
-10 16 0 14 7 11 14 -7z"/>
<path d="M2120 4000 c-8 -5 -10 -10 -5 -10 6 0 17 5 25 10 8 5 11 10 5 10 -5
0 -17 -5 -25 -10z"/>
<path d="M2134 3979 c-4 -7 -3 -10 4 -6 14 9 43 -3 36 -14 -3 -5 0 -9 6 -9 6
0 9 -4 5 -9 -8 -14 44 -8 53 5 4 6 14 14 22 18 8 3 0 4 -17 1 -18 -2 -33 -1
-33 3 0 4 -8 8 -17 8 -10 1 -25 4 -34 8 -10 4 -20 2 -25 -5z"/>
<path d="M2124 3954 c-10 -8 -13 -12 -5 -8 10 5 12 3 6 -5 -4 -7 -18 -11 -31
-8 -20 4 -23 1 -19 -14 8 -23 1 -24 -19 -4 -12 12 -20 14 -36 5 -14 -8 -26 -8
-42 0 l-23 11 23 -18 c22 -18 21 -33 -2 -33 -6 0 -4 5 4 10 13 8 12 10 -2 10
-10 0 -18 -4 -18 -10 0 -5 -14 -10 -30 -10 -17 0 -33 -6 -36 -14 -3 -8 -28
-23 -55 -32 -27 -10 -45 -20 -40 -24 6 -3 -4 -13 -20 -22 -29 -17 -29 -17 -25
8 3 14 1 22 -5 19 -5 -4 -7 -11 -4 -16 4 -5 -1 -12 -9 -15 -9 -3 -16 -10 -16
-16 0 -5 4 -7 9 -4 5 3 11 -1 14 -9 5 -12 2 -12 -19 -3 -19 9 -27 9 -37 -1 -9
-10 -8 -11 8 -5 20 7 20 7 0 -9 -10 -8 -24 -13 -31 -10 -15 5 -84 -54 -81 -70
1 -6 -10 -12 -26 -13 -15 -2 -25 1 -22 6 3 5 0 12 -7 16 -7 4 -10 3 -5 -1 4
-5 -1 -17 -10 -28 -10 -11 -13 -18 -8 -14 6 3 11 -2 11 -11 0 -11 -9 -17 -26
-18 -14 -1 -19 1 -12 3 12 5 7 23 -7 23 -12 0 -10 -33 3 -49 9 -12 8 -12 -11
-2 -15 7 -23 8 -23 1 0 -5 -5 -10 -11 -10 -5 0 -7 6 -3 13 5 6 -13 -10 -39
-36 -27 -27 -53 -45 -59 -41 -6 4 -8 3 -4 -4 7 -11 -47 -55 -57 -46 -3 3 -4
-2 -3 -13 5 -27 -3 -34 -24 -23 -13 7 -21 7 -25 0 -4 -6 -3 -9 2 -8 19 7 14
-18 -6 -28 -11 -6 -18 -14 -15 -17 4 -4 -4 -4 -17 -2 -24 4 -24 4 -4 -12 12
-9 14 -13 5 -11 -8 3 -20 -2 -26 -10 -6 -8 -22 -16 -35 -18 -13 -1 -25 -3 -27
-3 -1 -1 2 -10 8 -21 9 -17 8 -19 -7 -13 -16 6 -16 5 -4 -10 8 -10 9 -17 3
-17 -6 0 -13 4 -16 9 -7 11 -32 9 -43 -4 -4 -4 -3 -5 4 -1 23 13 26 -17 3 -36
-19 -15 -25 -16 -39 -6 -14 11 -14 11 -4 -3 7 -9 9 -20 5 -25 -4 -4 1 -2 11 5
9 7 17 9 17 3 0 -17 -32 -23 -49 -10 -14 12 -15 11 -2 -5 12 -16 11 -20 -7
-38 -12 -11 -22 -32 -23 -47 0 -24 -1 -25 -9 -7 l-8 20 -7 -20 c-5 -11 -15
-28 -23 -37 -11 -13 -12 -18 -3 -18 7 0 11 -6 9 -12 -3 -7 -13 -13 -24 -13
-12 0 -19 -7 -20 -20 -2 -37 -4 -43 -18 -48 -11 -4 -14 -1 -10 11 2 9 -1 6 -7
-8 -6 -14 -16 -35 -22 -47 -5 -12 -13 -20 -17 -18 -5 3 -11 -2 -14 -11 -3 -8
-2 -12 4 -9 6 3 10 -1 10 -10 0 -9 -5 -13 -10 -10 -6 4 -9 -6 -8 -26 2 -21 -2
-33 -12 -37 -12 -4 -13 -2 -2 9 6 7 12 18 12 24 -1 23 -30 -31 -30 -56 0 -14
-7 -32 -16 -40 -8 -7 -13 -21 -11 -30 3 -10 -1 -23 -8 -29 -8 -7 -12 -34 -11
-75 0 -36 -1 -59 -3 -53 -2 7 -9 -5 -15 -26 -7 -25 -8 -77 -4 -145 4 -58 8
-121 9 -138 1 -18 6 -33 11 -33 4 0 8 -5 8 -11 0 -6 -7 -9 -15 -5 -17 6 -21
-9 -5 -19 6 -4 8 -11 5 -16 -4 -5 -2 -9 4 -9 5 0 12 8 14 18 3 11 5 9 6 -8 2
-69 8 -101 19 -112 11 -11 12 -9 6 7 -4 11 -4 17 0 13 4 -3 9 -18 10 -32 6
-48 137 -212 162 -202 8 3 13 0 11 -6 -3 -17 113 -101 211 -151 264 -136 593
-190 952 -156 63 6 116 12 118 14 2 2 6 18 8 37 3 18 23 128 45 243 101 535
103 551 64 609 -14 20 -27 47 -31 60 -3 13 -14 33 -25 44 -17 19 -38 61 -85
170 -8 18 -14 41 -14 50 0 10 -9 28 -20 40 -14 15 -20 35 -20 67 0 25 -7 59
-15 75 -9 17 -12 30 -7 30 5 0 12 105 16 233 4 127 11 257 15 287 l8 55 2 -47
c2 -66 21 -61 21 5 0 56 17 107 36 107 14 0 25 100 20 178 -2 31 -1 40 1 20 2
-21 9 -38 15 -38 16 0 0 141 -19 163 -9 9 -29 17 -44 17 -15 0 -31 5 -34 10
-3 6 1 10 9 10 19 0 21 16 4 23 -10 4 -10 6 0 6 13 1 17 21 4 21 -5 0 -17 -7
-28 -16z m-209 -124 c3 -6 -1 -7 -9 -4 -18 7 -21 14 -7 14 6 0 13 -4 16 -10z
m-70 -20 c3 -6 -1 -7 -9 -4 -18 7 -21 14 -7 14 6 0 13 -4 16 -10z m45 0 c0 -5
-7 -7 -15 -4 -8 4 -15 8 -15 10 0 2 7 4 15 4 8 0 15 -4 15 -10z m-950 -770 c0
-5 -5 -10 -11 -10 -5 0 -7 5 -4 10 3 6 8 10 11 10 2 0 4 -4 4 -10z m-140
-1105 c0 -5 -5 -3 -10 5 -5 8 -10 20 -10 25 0 6 5 3 10 -5 5 -8 10 -19 10 -25z"/>
<path d="M1870 3880 c-9 -6 -10 -10 -3 -10 6 0 15 5 18 10 8 12 4 12 -15 0z"/>
<path d="M1565 3701 c-9 -15 15 -25 28 -12 9 9 7 10 -7 5 -13 -5 -17 -4 -12 4
4 7 5 12 2 12 -3 0 -7 -4 -11 -9z"/>
<path d="M1557 3659 c7 -7 15 -10 18 -7 3 3 -2 9 -12 12 -14 6 -15 5 -6 -5z"/>
<path d="M1146 3371 c-13 -14 -14 -21 -5 -27 7 -4 10 -3 6 3 -8 13 17 36 28
25 5 -4 5 -1 1 6 -9 16 -10 15 -30 -7z"/>
<path d="M890 3065 c-7 -9 -8 -15 -2 -15 5 0 12 7 16 15 3 8 4 15 2 15 -2 0
-9 -7 -16 -15z"/>
<path d="M651 2234 c0 -11 3 -14 6 -6 3 7 2 16 -1 19 -3 4 -6 -2 -5 -13z"/>
<path d="M660 2185 c0 -8 2 -15 4 -15 2 0 6 7 10 15 3 8 1 15 -4 15 -6 0 -10
-7 -10 -15z"/>
<path d="M690 2095 c0 -5 5 -17 10 -25 5 -8 10 -10 10 -5 0 6 -5 17 -10 25 -5
8 -10 11 -10 5z"/>
</g>
</svg>
