<?xml version="1.0" standalone="no"?>
<!DOCTYPE svg PUBLIC "-//W3C//DTD SVG 20010904//EN"
 "http://www.w3.org/TR/2001/REC-SVG-20010904/DTD/svg10.dtd">
<svg version="1.0" xmlns="http://www.w3.org/2000/svg"
 width="200.000000pt" height="200.000000pt" viewBox="0 0 200.000000 200.000000"
 preserveAspectRatio="xMidYMid meet">

<g transform="translate(0.000000,200.000000) scale(0.100000,-0.100000)"
fill="#003F7F" stroke="none">
<path d="M826 1834 c-334 -72 -592 -332 -660 -666 -16 -77 -21 -223 -10 -266
6 -20 10 -15 29 33 75 184 226 338 421 431 131 63 241 87 394 87 261 0 469
-85 647 -265 74 -75 166 -214 179 -271 6 -28 8 -30 15 -12 13 35 10 183 -7
263 -69 335 -331 597 -666 666 -95 20 -250 19 -342 0z"/>
<path d="M795 773 c-111 -10 -273 -38 -392 -68 -143 -37 -173 -49 -173 -68 0
-29 108 -178 179 -247 174 -169 386 -249 630 -237 139 6 232 31 351 92 150 78
278 201 350 337 30 56 31 62 16 73 -21 16 -222 69 -336 89 -174 32 -451 44
-625 29z"/>
</g>
</svg>
